<svg xmlns="http://www.w3.org/2000/svg" width="304.437" height="304.437" viewBox="0 0 80.549 80.549" xmlns:v="https://vecta.io/nano"><path d="M27.871 39.954c-1.316-.76-3.232-1.163-5.425-1.172-8.867 0-14.457 6.879-14.457 14.39s5.527 14.485 14.458 14.485 14.365-6.96 14.365-14.475c0-4.459 4.263-7.448 7.444-7.448 2.995 0 5.502 1.862 6.618 3.966a15.54 15.54 0 0 1 3.481-6.826c-1.654-1.78-5.577-4.082-10.099-4.082-9.265 0-14.43 7.793-14.43 14.393 0 4.52-3.406 7.491-7.38 7.491s-7.617-2.971-7.617-7.484 3.644-7.462 7.619-7.462c1.659 0 2.773.604 2.773.604zm52.677-27.06l-6.837 6.988v47.774h6.783z"/><path d="M56.086 63.541c1.517 1.517 5.101 4.096 10.006 4.115 8.867 0 14.457-6.879 14.457-14.39S75.022 38.782 66.09 38.782s-14.365 6.96-14.365 14.475c0 4.459-4.263 7.448-7.444 7.448-2.995 0-5.502-1.862-6.618-3.966a15.54 15.54 0 0 1-3.481 6.826c1.654 1.78 5.577 4.082 10.099 4.082 9.265 0 14.43-7.793 14.43-14.393 0-4.52 3.406-7.491 7.38-7.491s7.617 2.971 7.617 7.484-3.644 7.462-7.619 7.462c-1.923-.014-4.694-.861-6.48-3.936-.42 1.987-1.632 4.674-3.523 6.767zM0 12.894l6.837 6.988v47.774H.053z"/></svg>