<svg xmlns="http://www.w3.org/2000/svg" width="309.726" height="309.726" viewBox="0 0 81.948 81.948" xmlns:v="https://vecta.io/nano"><defs><linearGradient id="A" x1="0" y1="40.974" x2="81.948" y2="40.974" gradientUnits="userSpaceOnUse"><stop offset="0" stop-color="#00ff9b"/><stop offset="1" stop-color="#ff00e8"/></linearGradient></defs><path d="M 0.70016813,14.100681 0.75339493,68.86274 H 7.5369637 V 21.088888 Z m 80.54809587,0 -6.837311,6.988207 v 20.932066 c -2.123838,-1.27642 -4.687083,-2.031919 -7.620729,-2.031919 -8.931999,0 -14.365022,6.960093 -14.365022,14.475094 0,4.458999 -4.262993,7.447612 -7.443992,7.447612 -2.995001,0 -5.502204,-1.861652 -6.618204,-3.965651 a 15.54,15.54 0 0 1 -3.480926,6.825941 c 1.653998,1.780001 5.577128,4.081925 10.09913,4.081925 9.264998,0 14.430133,-7.792927 14.430133,-14.392928 0,-4.520001 3.405914,-7.491019 7.379916,-7.491019 3.973999,0 7.617109,2.970785 7.617109,7.483786 0,4.513 -3.644177,7.462079 -7.619176,7.462079 -1.923,-0.014 -4.694229,-0.861195 -6.480228,-3.936195 -0.42,1.987001 -1.631784,4.674031 -3.522784,6.767032 v 0.0011 c 1.517,1.517 5.101112,4.095996 10.006113,4.114995 2.924738,0 5.489988,-0.752023 7.61866,-2.024682 v 2.024682 h 6.783053 l 0.01344,-13.32064 c 0.02519,-0.354695 0.04186,-0.710938 0.04186,-1.069187 0,-0.350597 -0.01593,-0.699365 -0.03979,-1.046965 z M 23.146355,39.989035 c -8.867,0 -14.4570065,6.878829 -14.4570065,14.389827 0,7.511001 5.5270395,14.484913 14.4580395,14.484913 8.931001,0 14.365022,-6.960093 14.365022,-14.475094 0,-4.458999 4.262995,-7.44761 7.443995,-7.44761 2.995,0 5.501688,1.861649 6.617687,3.965651 a 15.54,15.54 0 0 1 3.480927,-6.825944 c -1.654001,-1.780001 -5.576615,-4.081925 -10.098614,-4.081925 -9.265002,0 -14.430134,7.792928 -14.430134,14.392928 0,4.520002 -3.405916,7.49102 -7.379916,7.49102 -3.974,0 -7.61711,-2.970786 -7.61711,-7.483783 0,-4.513 3.644177,-7.462082 7.619177,-7.462082 1.659,0 2.772959,0.604097 2.772959,0.604097 l 2.649967,-6.379975 C 27.25535,40.401057 25.339355,39.998036 23.146355,39.989035 Z" fill="none" stroke="url(#A)" stroke-width="1.397" stroke-linecap="square" stroke-dasharray="4.2, 4.2" stroke-dashoffset="0" paint-order="markers fill stroke">
<animate attributeName="stroke-dashoffset" values="0;8.4" dur="1s" repeatCount="indefinite" /></path></svg>